<svg xmlns="http://www.w3.org/2000/svg" viewBox="0 0 60 41">
  <path d="M19.24 21.71c-.05.03-.02.02 0 0Zm11.14-2.23-.01.02c.03-.02.03-.02.01-.02Z"/>
  <path d="M56.33 26.12c-.73.41-1.46.75-2.17 1.18-.2.12-.78.43-1.4.87-.68.48-1.41.98-1.44 1.02-.11.1-.3.2-.34.16-.19-.24-.12-1.11-.1-1.7.02-.8.15-1.63.33-2.4.4-1.72 1.17-3.19 2.01-4.72.4-.73.84-1.42 1.35-2.07.22-.29 1.3-1.49 1.1-1.8-.16-.23-1.21-.58-1.42-.5-.19.08-.44.35-.58.5-.4.36-.92.89-1.62 1.75-.18.2-1.1 1.44-1.48 2.04-.28.45-.89 1.36-1.13 1.85-.06.15-.87 1.65-1.17 2.22-.24.48-.44.88-.71 1.53-.2.45-.58 1.85-.62 1.98-.08.2-.23.72-.37.9-.27-.17-.25-.63-.25-.92a8 8 0 0 1 .25-1.96c.24-.92.59-1.63.65-1.75l.51-1.04a33.3 33.3 0 0 0 1.84-3.78c.32-.78.87-1.53.97-2.4.05-.42-.02-.49-.38-.66-.22-.1-.6-.34-.86-.3-.57.1-.97 1.24-1.22 1.75a28.42 28.42 0 0 0-1.86 3.17c-.08.07-.08.24-.16.32-.12.26-.2.56-.33.78-.32.63-.76.56-1.33.88-.4.22-.84.64-1.2.97-.14.12-1.03 1.14-1.01 1.14-.19.19-.94 1.32-1.03 1.24.22-1.05.65-2 1.01-3.03.24-.65.53-1.3.81-1.91.15-.32.34-.64.5-.95l.23-.49c.04-.05.94-1.61 1.39-2.31l.61-1c.07-.1.34-.54.27-.46.32-.46.69-1.1.78-1.65.07-.37-.03-.44-.27-.64-.2-.18-.49-.43-.76-.3-.17.07-.59.65-.68.8a85.45 85.45 0 0 0-3.86 5.75c-.4.91-1.03 1.4-1.7 2.12-.49.51-.95 1.06-1.43 1.6l-.35.4c-.19.22-1.17 1.85-1.33 1.82.02 0 .5-1.85.52-1.97.3-1.2.86-2.34 1.35-3.49.24-.54.54-1.05.81-1.58.16-.32.84-1.4.72-1.79-.1-.25-.81-.36-1.1-.4-.36-.04-.54.1-.71.42-1.45 2.63-3.34 4.91-4.81 7.53-.37.64-.62 1.39-.97 2.06-.2.41-.4.84-.57 1.29-.08.2-.2 1-.41 1.12-.07.03-.1-1.31-.1-1.38.03-.76.11-1.56.24-2.32.13-.8.25-1.63.44-2.41.26-1.07.58-2.08.9-3.13.21-.65.4-1.3.56-1.96.08-.32.26-1.31.04-1.47-.12-.08-.69-.02-.81.05-.13.08-.21.32-.35.41-.05.03-.26.07-.24.05-.35.29-.76 1.05-1 1.44-.2.28-.38.59-.56.87l-.01.02a68.64 68.64 0 0 0-2.27 4.13c-.27-.1.5-2.62.63-3.16.16-.75.35-1.5.45-2.26.04-.37.24-1.52-.2-1.68-.28-.1-1.09.42-1.26.6-.46.5-.84 1.06-1.26 1.59-.41.5-2.16 3.28-2.27 3.46-.3.5-.49 1.04-.82 1.5-.24-.26.89-2.3 1.03-2.63.24-.51.41-.9.62-1.4.27-.63.59-1.25.82-1.92.1-.27.23-.62.1-.72-.11-.1-.33-.1-.6-.22-.16-.08-.3-.24-.39-.27-.46-.51-1.1.76-1.27 1.14-.03.1-.04.34-.09.47-.06.16-.17.33-.25.5l-.5.92c-.82 1.6-1.44 3.24-2.38 4.74-.76 1.2-1.44 2.28-2.08 3.52-.1.18-1 1.85-1.08 1.84-.25-.07-.14-.8-.14-.98 0-.59.02-1.24.16-1.82.02-.03.17-.76.43-1.46.27-.74 1.19-3.02 1.5-3.67.34-.9.74-1.77 1.12-2.65.12-.27.57-1.13.41-1.4-.1-.16-.78-.45-.97-.45-.4-.03-.46.29-.65.56-.28.4-.89 1.03-.97 1.54-.04 0-.27-.92-.3-.99-.22-.44-.6-.8-1.03-1.06-1.06-.63-2.32.43-3.02 1.24-1.17 1.37-1.84 3.24-2.46 4.96-.1.5-.57 1.7-.7 3.22a6.3 6.3 0 0 0 .45 3.15 3.2 3.2 0 0 0 1.29 1.15s.55.04.82-.04c.87-.3 1.6-1.67 2.02-2.45.23.1.12.59.17.78.08.37.29.75.54 1.04.25.27.56.44.95.36.48-.1.8-.24 1.02-.62.35-.6 2.06-4.24 2.5-4.2-.68 1.87.26 3.72 1.4 5.16.05-.69-.08-1.36 0-2.04.18-1.44.97-2.84 1.73-4.06.99-1.58 2.07-3.01 2.92-4.62a27.72 27.72 0 0 0-.79 3.92c-.13 1.1-.44 2.16-.4 3.27.05.96.24 1.92 1.08 2.47.11.07.9.61.96.47-.21-.56-.51-.96-.4-1.6.16-1.05.52-2.18.97-3.16.41-.9.92-1.77 1.27-2.7.35-.93.9-2 1.5-2.8.2.37-.66 2.58-.76 3.19-.03.14-.52 3.25-.57 3.67-.08.67 0 1.4.05 2.07l.19.7c.14.48.76.75 1.2.75.53 0 .93-.67 1.15-1.11.3-.62.44-1.33.8-1.93.02-.07.83-1.66.96-1.92.11-.22.22-.48.37-.68.17-.26.27-.51.44-.75.1-.15.3-.53.41-.64.15.14-.2.99-.25 1.16L34.24 26c-.18.63-.51 1.26-.45 1.9.05.54.21 1.15.56 1.57.17.2 1.36 1.32 1.65 1.08.05-.05 0-.64 0-.78.03-.38.13-.77.24-1.15.22-.81.38-1.5.82-2.2.23-.35 2.75-3.69 2.94-3.56.11.1-.76 2.28-.84 2.57-.22.83-.53 1.74-.56 2.58-.01.47.3.8.64 1.09.36.33.8.54 1.16.84.04.05.54.47.55.3.02-.3.16-.45.2-.76.07-.33-.07-.6.04-.94.08-.25.3-.53.44-.77.07-.1 1.16-1.5 1.6-1.91.14-.13 1.39-1.32 1.45-1.3.02.1-.1.33-.12.45-.05.28 0 .47.04.74.07.43.15.75.32 1.13.24.53.54 1 .9 1.47.21.29.69 1.3 1.15.62.46-.68.57-1.35.89-2 .38-.8.63-1.86 1.17-2.63.07.07-.22 1.04-.25 1.17-.08.46-.18.92-.2 1.4-.09.93-.14 1.52.05 2.46.07.37.08.53.26 1.2.14.55.19.41-.06.8-.58.89-.94 1.7-1.62 3.1-.4.83-.84 1.9-.99 3.1-.1.78-.03 1.58.64 2.63.77 1.25 2.68.6 3.4-.27 1.44-1.77 1.93-4.42 1.64-6.65-.12-.99-.28-1.56-.44-2.54-.17-.99.5-1.27 2.35-2.5.44-.29.8-.48 1.27-.74L56 27l.67-.39c.25-.16 3.33-2.03 3.27-2.09-1.15.3-2.53.99-3.6 1.6Zm-37.1-4.4c-.04.02 0 0 0 0Zm-2.63 1.17c-.12.35-.63 1.9-.82 2.3-.16.35-1.2 2.43-1.62 3.06-.2.34-.4.7-.64 1.02-.4.53-.71.28-.85-.41-.18-.94.03-2.17.25-3.08l.4-1.45c.05-.18.38-1.58 1.01-2.89a9.32 9.32 0 0 1 1.6-2.47c.96-.74 1.3.08 1.36.88.08.73-.6 2.8-.69 3.04Zm32.96 12.8a5.92 5.92 0 0 1-.9 2.85c-.33.45-.6.8-1.07.74-.35-.05-.56-.64-.59-1.02-.03-.58 0-.82.11-1.3a19.05 19.05 0 0 1 2.06-4.83c-.01.2.45 2.2.39 3.56Z"/>
  <path d="M32.8 34.28c-2.67-.99-6.56-1.53-9.28-.5-.4.17-1.1.66-.65 1.2.29.34.96.12 1.32.04.81-.2 1.65-.45 2.43-.6 1.59-.26 3.1-.22 4.73-.09.38.03.75.16 1.11.26.29.06 1.16 0 .33-.3ZM42 12.16c-.05-.3-.62-.13-.83-.02-.34.18-.5.6-.73.91-.14.2-.23.38-.36.62-.03.07-.29.58-.45 1.04-.09.3-.1.6-.1.67 0 .2-.12.22.04.3.14.07.18-.05.27-.13.2-.19 1.13-1.22 1.48-1.69.73-.95.74-1.54.68-1.7ZM17.67 30.07c-.02.02-.04.03-.04.07.02-.02.04-.04.04-.07Zm2.53-10.64c-.03.02-.03.03-.04.07.03-.02.05-.04.03-.07ZM13.89 14.34c0-.27.05-.96-.37-1.48a2 2 0 0 0-1.49-.75c-.03 0-.76 0-1.54.2-.93.25-1.98.7-2.16.79-.47.22-.63.01-1.08-.16-.4-.15-.47.06-.68.37-.16.22-.36.41-.54.63-.36.47-.65 1-1 1.47-.27.37-.55.8-.76 1.21-.16.32-.64 1.49-.8 1.76-.12.2-1.7 4.29-1.9 4.7-.1.23-.67 1.49-.98 2.62-.26.9-.56 3.18-.38 4.16.14.82.98 2.22 1.2 2.46.05.05.38.43.67.7.41.4.92.67 1.02.61-.16-.18-.64-.86-.77-1.02a3.2 3.2 0 0 1-.38-1.66c.02-.67.26-1.32.32-1.58.1-.45.46-2.31.62-2.78l.5-1.18c.42-.08 2.53-1.75 3.18-2.18.6-.42 2.45-1.72 2.56-1.74.17-.02.28.13.27.11.08 0 .36.72.43.8.4-.24-.05-1.13-.2-1.42-.36-.7-.92-.9-1.66-.83-.62.06-1.24.38-1.76.69-.51.28-.99.82-1.56.97.41-1.2 1.02-2.38 1.57-3.53l.8-1.53c.1-.22.33-.4.52-.54.14-.11.59-.35.59-.35.25-.15 4.58-1.95 5-1.7.43.28.1 1 .08 1.38-.05.53.2.33.33-.02.11-.38.36-.83.35-1.18ZM12.78 3.22l2.68 7.53c.06.2.03.18.25.18h1.8c.36 0 .27.06.4-.27l3.31-8.43c.11-.28.05-.24.35-.24H43c.14 0 .14 0 .16-.14.03-.37.05-.73.1-1.1.03-.2.01-.43.07-.64H19.62c-.06.05-.1.13-.13.2l-.4 1.03c-.7 1.83-1.44 3.67-2.15 5.5-.07.16-.11.32-.21.5l-.7-1.95L14.46.96c-.1-.29-.17-.6-.33-.85h-2.45c-.01.07.02.11.03.16.37.97.72 1.96 1.07 2.95Z"/>
  <path d="M35.02 3.29h-1.78c-.07 0-.1.01-.1.08v3.79c0 .07.02.13-.03.21a770.74 770.74 0 0 1-2.46-3.94c-.08-.13-.16-.18-.3-.16-.52.02-1.03 0-1.56 0-.27 0-.23-.03-.23.22v7.28c-.02.11.03.14.14.14h1.7c.14 0 .14 0 .14-.14V7.13c.08.02.1.07.13.1l.9 1.2c.57.8 1.14 1.56 1.72 2.34.08.11.15.16.28.14h1.47c.1 0 .13-.03.13-.11V3.48c.04-.2.07-.2-.15-.2Zm5.87 7.57a2.3 2.3 0 0 0 1.84-2.26 2.1 2.1 0 0 0-1.52-2.14c-.26-.08-.53-.14-.78-.2l-1.24-.34c-.2-.05-.4-.13-.56-.27-.31-.27-.28-.67.08-.86a.9.9 0 0 1 .35-.12c.3-.04.6-.03.9.02.39.06.67.26.82.64.05.11.1.13.22.13h1.52c.05 0 .1.01.15-.04 0-.25-.1-.49-.21-.71a2.77 2.77 0 0 0-1.71-1.4 4.45 4.45 0 0 0-1.78-.17c-.68.05-1.3.29-1.83.74-.46.38-.71.87-.73 1.48-.01.83.37 1.44 1.1 1.8.38.2.78.3 1.19.42l1.4.38c.2.06.4.13.55.26a.6.6 0 0 1-.02.97 1.1 1.1 0 0 1-.36.17c-.48.13-.95.12-1.43-.03-.35-.1-.57-.33-.71-.67-.07-.17-.07-.17-.24-.17h-1.57c-.07 0-.13-.02-.2.03 0 .33.1.67.26.97a2.7 2.7 0 0 0 1.67 1.34c.95.27 1.89.24 2.84.03ZM24.89 3.27c.11 0 .14.06.17.16.26.7.51 1.4.8 2.09.3.87.62 1.73.93 2.6l.94 2.6.05.16c-.04.05-.08.04-.12.04h-1.87c-.17 0-.17 0-.23-.17-.12-.28-.23-.59-.32-.9-.03-.07-.08-.12-.18-.12h-2.65c-.1 0-.14.03-.17.13l-.25.74-.07.2c-.03.08-.06.13-.16.13h-2.05c0-.07.02-.13.04-.17a.4.4 0 0 0 .01-.04c.74-1.87 1.48-3.74 2.2-5.61l.63-1.58c0-.04.02-.07.04-.1l.02-.06c.03-.08.08-.1.16-.1h2.08Zm-1.14 2.6-.83 2.46c.56 0 1.1 0 1.67-.02l-.81-2.45-.02.01h-.01Z"/>
</svg>